<mxfile host="app.diagrams.net" modified="2024-06-16T16:52:47.757Z" agent="Mozilla/5.0 (Windows NT 10.0; Win64; x64; rv:127.0) Gecko/20100101 Firefox/127.0" etag="LpYYo13Vo6Cjy-6ikOwJ" version="24.5.4" type="github">
  <diagram name="Seite-1" id="_6wG36E1XGiq7voDwoOF">
    <mxGraphModel dx="1014" dy="725" grid="1" gridSize="10" guides="1" tooltips="1" connect="1" arrows="1" fold="1" page="1" pageScale="1" pageWidth="827" pageHeight="1169" math="0" shadow="0">
      <root>
        <mxCell id="0" />
        <mxCell id="1" parent="0" />
        <mxCell id="0QkTgStvVoY5RLkrygCM-1" value="&lt;div&gt;SourceModelStorage&lt;/div&gt;" style="html=1;dropTarget=0;whiteSpace=wrap;" parent="1" vertex="1">
          <mxGeometry x="130" y="210" width="180" height="90" as="geometry" />
        </mxCell>
        <mxCell id="0QkTgStvVoY5RLkrygCM-2" value="" style="shape=module;jettyWidth=8;jettyHeight=4;" parent="0QkTgStvVoY5RLkrygCM-1" vertex="1">
          <mxGeometry x="1" width="20" height="20" relative="1" as="geometry">
            <mxPoint x="-27" y="7" as="offset" />
          </mxGeometry>
        </mxCell>
        <mxCell id="yn1KnY_iFDNht7DufbNo-2" value="" style="rounded=0;orthogonalLoop=1;jettySize=auto;html=1;endArrow=halfCircle;endFill=0;endSize=6;strokeWidth=1;sketch=0;fontSize=12;curved=1;exitX=-0.006;exitY=0.589;exitDx=0;exitDy=0;exitPerimeter=0;" edge="1" parent="1" source="yn1KnY_iFDNht7DufbNo-7">
          <mxGeometry relative="1" as="geometry">
            <mxPoint x="500" y="585" as="sourcePoint" />
            <mxPoint x="430" y="338" as="targetPoint" />
          </mxGeometry>
        </mxCell>
        <mxCell id="yn1KnY_iFDNht7DufbNo-3" value="" style="rounded=0;orthogonalLoop=1;jettySize=auto;html=1;endArrow=oval;endFill=0;sketch=0;sourcePerimeterSpacing=0;targetPerimeterSpacing=0;endSize=10;fontSize=12;curved=1;exitX=1;exitY=0.5;exitDx=0;exitDy=0;" edge="1" parent="1" source="0QkTgStvVoY5RLkrygCM-1">
          <mxGeometry relative="1" as="geometry">
            <mxPoint x="500" y="465" as="sourcePoint" />
            <mxPoint x="370" y="255" as="targetPoint" />
          </mxGeometry>
        </mxCell>
        <mxCell id="yn1KnY_iFDNht7DufbNo-4" value="" style="ellipse;whiteSpace=wrap;html=1;align=center;aspect=fixed;fillColor=none;strokeColor=none;resizable=0;perimeter=centerPerimeter;rotatable=0;allowArrows=0;points=[];outlineConnect=1;" vertex="1" parent="1">
          <mxGeometry x="515" y="460" width="10" height="10" as="geometry" />
        </mxCell>
        <mxCell id="yn1KnY_iFDNht7DufbNo-5" value="&lt;div&gt;EMFSourceModelStorage&lt;/div&gt;" style="html=1;dropTarget=0;whiteSpace=wrap;" vertex="1" parent="1">
          <mxGeometry x="490" y="135" width="180" height="90" as="geometry" />
        </mxCell>
        <mxCell id="yn1KnY_iFDNht7DufbNo-6" value="" style="shape=module;jettyWidth=8;jettyHeight=4;" vertex="1" parent="yn1KnY_iFDNht7DufbNo-5">
          <mxGeometry x="1" width="20" height="20" relative="1" as="geometry">
            <mxPoint x="-27" y="7" as="offset" />
          </mxGeometry>
        </mxCell>
        <mxCell id="yn1KnY_iFDNht7DufbNo-7" value="&lt;div&gt;GModelStorage&lt;/div&gt;" style="html=1;dropTarget=0;whiteSpace=wrap;" vertex="1" parent="1">
          <mxGeometry x="490" y="285" width="180" height="90" as="geometry" />
        </mxCell>
        <mxCell id="yn1KnY_iFDNht7DufbNo-8" value="" style="shape=module;jettyWidth=8;jettyHeight=4;" vertex="1" parent="yn1KnY_iFDNht7DufbNo-7">
          <mxGeometry x="1" width="20" height="20" relative="1" as="geometry">
            <mxPoint x="-27" y="7" as="offset" />
          </mxGeometry>
        </mxCell>
        <mxCell id="yn1KnY_iFDNht7DufbNo-9" value="" style="rounded=0;orthogonalLoop=1;jettySize=auto;html=1;endArrow=halfCircle;endFill=0;endSize=6;strokeWidth=1;sketch=0;fontSize=12;curved=1;exitX=0;exitY=0.5;exitDx=0;exitDy=0;" edge="1" parent="1" source="yn1KnY_iFDNht7DufbNo-5">
          <mxGeometry relative="1" as="geometry">
            <mxPoint x="360" y="175" as="sourcePoint" />
            <mxPoint x="430" y="180" as="targetPoint" />
          </mxGeometry>
        </mxCell>
        <mxCell id="yn1KnY_iFDNht7DufbNo-10" value="" style="endArrow=open;endSize=12;dashed=1;html=1;rounded=0;fontSize=12;curved=1;" edge="1" parent="1">
          <mxGeometry width="160" relative="1" as="geometry">
            <mxPoint x="410" y="180" as="sourcePoint" />
            <mxPoint x="380" y="240" as="targetPoint" />
          </mxGeometry>
        </mxCell>
        <mxCell id="yn1KnY_iFDNht7DufbNo-11" value="" style="endArrow=open;endSize=12;dashed=1;html=1;rounded=0;fontSize=12;curved=1;" edge="1" parent="1">
          <mxGeometry width="160" relative="1" as="geometry">
            <mxPoint x="410" y="340" as="sourcePoint" />
            <mxPoint x="380" y="270" as="targetPoint" />
          </mxGeometry>
        </mxCell>
      </root>
    </mxGraphModel>
  </diagram>
</mxfile>
